<!DOCTYPE svg PUBLIC "-//W3C//DTD SVG 1.1//EN" "http://www.w3.org/Graphics/SVG/1.1/DTD/svg11.dtd">
<!-- Uploaded to: SVG Repo, www.svgrepo.com, Transformed by: SVG Repo Mixer Tools -->
<svg height="800px" width="800px" version="1.1" id="Capa_1" xmlns="http://www.w3.org/2000/svg" xmlns:xlink="http://www.w3.org/1999/xlink" viewBox="0 0 357.105 357.105" xml:space="preserve" fill="#000000">
<g id="SVGRepo_bgCarrier" stroke-width="0"/>
<g id="SVGRepo_tracerCarrier" stroke-linecap="round" stroke-linejoin="round"/>
<g id="SVGRepo_iconCarrier"> <g> <path style="fill:#ffffff;" d="M0,129.995c0,8.689,7.145,8.689,21.37,8.689h91.398v138.105c0,4.487,3.633,8.129,8.129,8.129 c4.495,0,8.129-3.642,8.129-8.129V130.556c0-4.487-3.633-8.129-8.129-8.129H34.465l137.186-86.675 c3.528-2.227,10.201-2.243,13.721,0l137.243,86.675h-86.407c-4.495,0-8.129,3.642-8.129,8.129v146.233 c0,4.487,3.633,8.129,8.129,8.129c4.495,0,8.129-3.642,8.129-8.129V138.685h91.414c14.217,0,21.354,0,21.354-8.689 c0-5.007-2-6.267-14.997-14.485L194.07,22.015c-8.86-5.601-22.199-5.601-31.092,0L14.981,115.518C2.284,123.541,0,124.98,0,129.995 z"/> <path style="fill:#ffffff;" d="M120.896,304.743c-4.495,0-8.129,3.642-8.129,8.129v18.289c0,4.487,3.633,8.129,8.129,8.129h115.312 c4.495,0,8.129-3.642,8.129-8.129v-19.305c0-4.487-3.633-8.129-8.129-8.129c-4.495,0-8.129,3.642-8.129,8.129v11.177h-99.055 v-10.161C129.025,308.385,125.391,304.743,120.896,304.743z"/> </g> </g>
</svg>